<svg viewBox="0 0 41 38" fill="none" xmlns="http://www.w3.org/2000/svg">
<path d="M35.875 23.75H31.6042C30.9243 23.75 30.2734 24.0002 29.7917 24.4451C29.3116 24.89 29.0417 25.4948 29.0417 26.125C29.0417 26.7552 29.3116 27.3584 29.7917 27.8049C30.2717 28.2498 30.9243 28.5 31.6042 28.5H33.3125C33.9925 28.5 34.6433 28.7502 35.1251 29.1951C35.6051 29.64 35.875 30.2448 35.875 30.875C35.875 31.5052 35.6051 32.1084 35.1251 32.5549C34.645 32.9998 33.9925 33.25 33.3125 33.25H29.0417M32.4584 33.25V34.8333M32.4584 22.1667V23.75M22.2084 33.25H10.25C9.34462 33.25 8.47508 32.9159 7.83446 32.3222C7.19383 31.7284 6.83337 30.9225 6.83337 30.0833V14.25C6.83337 13.4108 7.19383 12.6049 7.83446 12.0112C8.47508 11.4174 9.34462 11.0833 10.25 11.0833H13.6667M34.1667 16.0233V14.25C34.1667 13.4108 33.8062 12.6049 33.1656 12.0112C32.525 11.4174 31.6555 11.0833 30.75 11.0833H27.3334M27.3334 15.8333V6.33332C27.3334 5.49416 26.9729 4.68824 26.3323 4.09449C25.6917 3.50074 24.8221 3.16666 23.9167 3.16666H17.0834C16.178 3.16666 15.3084 3.50074 14.6678 4.09449C14.0272 4.68824 13.6667 5.49416 13.6667 6.33332V15.8333M27.3334 15.8333H13.6667M27.3334 15.8333H29.0417M13.6667 15.8333H11.9584M13.6667 22.1667V22.1825M13.6667 26.9167V26.9325M20.5 22.1508V22.1666M20.5 26.9167V26.9325" stroke="currentColor" stroke-width="3" stroke-linecap="round" stroke-linejoin="round"/>
</svg>
