<svg viewBox="0 0 36 36" fill="none" xmlns="http://www.w3.org/2000/svg">
  <path
    d="M28.5 4.5H7.5C6.70435 4.5 5.94129 4.81607 5.37868 5.37868C4.81607 5.94129 4.5 6.70435 4.5 7.5V28.5C4.5 29.2956 4.81607 30.0587 5.37868 30.6213C5.94129 31.1839 6.70435 31.5 7.5 31.5H28.5C29.2956 31.5 30.0587 31.1839 30.6213 30.6213C31.1839 30.0587 31.5 29.2956 31.5 28.5V7.5C31.5 6.70435 31.1839 5.94129 30.6213 5.37868C30.0587 4.81607 29.2956 4.5 28.5 4.5ZM28.5 4.5L18 15M13.5 4.5L4.5 13.5M21 4.5L10.5 15M31.5 9L25.5 15M4.5 15H31.5M15 15V31.5"
    stroke="currentColor"
    stroke-width="2.75"
    stroke-linecap="round"
    stroke-linejoin="round"
  />
</svg>
